<?xml version="1.0" encoding="UTF-8" standalone="no"?>
<!-- Created with Inkscape (http://www.inkscape.org/) -->
<svg
   xmlns:dc="http://purl.org/dc/elements/1.1/"
   xmlns:cc="http://web.resource.org/cc/"
   xmlns:rdf="http://www.w3.org/1999/02/22-rdf-syntax-ns#"
   xmlns:svg="http://www.w3.org/2000/svg"
   xmlns="http://www.w3.org/2000/svg"
   xmlns:sodipodi="http://sodipodi.sourceforge.net/DTD/sodipodi-0.dtd"
   xmlns:inkscape="http://www.inkscape.org/namespaces/inkscape"
   width="744.09448819"
   height="1052.3622047"
   id="svg2"
   sodipodi:version="0.32"
   inkscape:version="0.45"
   sodipodi:docbase="F:\VisualCWorkingCopies\imebra_hg\project_files\docs\images"
   sodipodi:docname="logo.svg"
   inkscape:output_extension="org.inkscape.output.svg.inkscape"
   sodipodi:modified="true">
  <defs
     id="defs4">
    <mask
       maskUnits="userSpaceOnUse"
       id="mask2188">
      <path
         transform="matrix(0.9983741,0,0,0.9816081,5.008141e-2,5.9077325)"
         d="M 90.096407 327.47739 A 30.048857 13.243569 0 1 1  29.998693,327.47739 A 30.048857 13.243569 0 1 1  90.096407 327.47739 z"
         sodipodi:ry="13.243569"
         sodipodi:rx="30.048857"
         sodipodi:cy="327.47739"
         sodipodi:cx="60.04755"
         id="path2190"
         style="fill:#ffffff;fill-opacity:1;stroke:none;stroke-width:1.00399995;stroke-miterlimit:4;stroke-dasharray:none;stroke-opacity:1"
         sodipodi:type="arc" />
    </mask>
    <clipPath
       clipPathUnits="userSpaceOnUse"
       id="clipPath2222">
      <path
         transform="matrix(5.1113337,6.7641241e-4,0,2.5914455,-123.33332,-495.30194)"
         d="M 41.737309 317.4444 A 5.8693094 5.0165038 0 1 1  29.998691,317.4444 A 5.8693094 5.0165038 0 1 1  41.737309 317.4444 z"
         sodipodi:ry="5.0165038"
         sodipodi:rx="5.8693094"
         sodipodi:cy="317.4444"
         sodipodi:cx="35.868"
         id="path2224"
         style="fill:#000000;fill-opacity:1;stroke:none;stroke-width:1.00399995;stroke-miterlimit:4;stroke-dasharray:none;stroke-opacity:1"
         sodipodi:type="arc" />
    </clipPath>
    <clipPath
       clipPathUnits="userSpaceOnUse"
       id="clipPath2238">
      <path
         sodipodi:type="arc"
         style="fill:#000000;fill-opacity:1;stroke:none;stroke-width:1.00399995;stroke-miterlimit:4;stroke-dasharray:none;stroke-opacity:1"
         id="path2240"
         sodipodi:cx="31.353148"
         sodipodi:cy="325.77179"
         sodipodi:rx="10.685153"
         sodipodi:ry="5.618484"
         d="M 42.038301 325.77179 A 10.685153 5.618484 0 1 1  20.667994,325.77179 A 10.685153 5.618484 0 1 1  42.038301 325.77179 z"
         transform="matrix(3.7187226,0,0,2.8985969,-74.108538,-608.32962)" />
    </clipPath>
  </defs>
  <sodipodi:namedview
     id="base"
     pagecolor="#ffffff"
     bordercolor="#666666"
     borderopacity="1.0"
     gridtolerance="10000"
     guidetolerance="10"
     objecttolerance="10"
     inkscape:pageopacity="0.0"
     inkscape:pageshadow="2"
     inkscape:zoom="9.9671012"
     inkscape:cx="52.339542"
     inkscape:cy="710.1975"
     inkscape:document-units="px"
     inkscape:current-layer="layer1"
     showgrid="true"
     inkscape:window-width="1024"
     inkscape:window-height="712"
     inkscape:window-x="-4"
     inkscape:window-y="-4" />
  <metadata
     id="metadata7">
    <rdf:RDF>
      <cc:Work
         rdf:about="">
        <dc:format>image/svg+xml</dc:format>
        <dc:type
           rdf:resource="http://purl.org/dc/dcmitype/StillImage" />
      </cc:Work>
    </rdf:RDF>
  </metadata>
  <g
     inkscape:label="Layer 1"
     inkscape:groupmode="layer"
     id="layer1">
    <path
       sodipodi:type="arc"
       style="fill:#5454f5;fill-opacity:1;stroke:none;stroke-width:1.00399995;stroke-miterlimit:4;stroke-dasharray:none;stroke-opacity:1"
       id="path2160"
       sodipodi:cx="60.089287"
       sodipodi:cy="327.80862"
       sodipodi:rx="15.089286"
       sodipodi:ry="15.267858"
       d="M 75.178573 327.80862 A 15.089286 15.267858 0 1 1  45.000001,327.80862 A 15.089286 15.267858 0 1 1  75.178573 327.80862 z"
       transform="matrix(0.9940828,0,0,0.9824556,0.2662716,5.304757)"
       clip-path="url(#clipPath2238)" />
    <g
       id="g2195"
       transform="matrix(0.7500003,0,0,0.7500003,14.999988,81.840441)">
      <path
         transform="matrix(5.7828133,0,0,3.0894471,-405.84609,-660.733)"
         d="M 81.940409 319.82913 A 1.3834095 2.5894587 0 1 1  79.17359,319.82913 A 1.3834095 2.5894587 0 1 1  81.940409 319.82913 z"
         sodipodi:ry="2.5894587"
         sodipodi:rx="1.3834095"
         sodipodi:cy="319.82913"
         sodipodi:cx="80.556999"
         id="path2162"
         style="fill:#000000;fill-opacity:1;stroke:none;stroke-width:1.00399995;stroke-miterlimit:4;stroke-dasharray:none;stroke-opacity:1"
         sodipodi:type="arc" />
      <path
         transform="matrix(0.775179,-0.6317415,0.6317415,0.775179,-203.44656,123.37044)"
         d="M 82.011352 324.33408 A 0.99321705 1.91549 0 1 1  80.024918,324.33408 A 0.99321705 1.91549 0 1 1  82.011352 324.33408 z"
         sodipodi:ry="1.91549"
         sodipodi:rx="0.99321705"
         sodipodi:cy="324.33408"
         sodipodi:cx="81.018135"
         id="path2164"
         style="fill:#808080;fill-opacity:1;stroke:none;stroke-width:1.00399995;stroke-miterlimit:4;stroke-dasharray:none;stroke-opacity:1"
         sodipodi:type="arc" />
    </g>
  </g>
</svg>
